<svg width="318" height="318" viewBox="0 0 318 318" fill="none" xmlns="http://www.w3.org/2000/svg">
<circle cx="3" cy="3" r="3" fill="#CBCBCB"/>
<circle cx="27" cy="3" r="3" fill="#CBCBCB"/>
<circle cx="51" cy="3" r="3" fill="#CBCBCB"/>
<circle cx="75" cy="3" r="3" fill="#CBCBCB"/>
<circle cx="99" cy="3" r="3" fill="#CBCBCB"/>
<circle cx="123" cy="3" r="3" fill="#CBCBCB"/>
<circle cx="147" cy="3" r="3" fill="#CBCBCB"/>
<circle cx="171" cy="3" r="3" fill="#CBCBCB"/>
<circle cx="195" cy="3" r="3" fill="#CBCBCB"/>
<circle cx="219" cy="3" r="3" fill="#CBCBCB"/>
<circle cx="243" cy="3" r="3" fill="#CBCBCB"/>
<circle cx="267" cy="3" r="3" fill="#CBCBCB"/>
<circle cx="291" cy="3" r="3" fill="#CBCBCB"/>
<circle cx="315" cy="3" r="3" fill="#CBCBCB"/>
<circle cx="3" cy="27" r="3" fill="#CBCBCB"/>
<circle cx="27" cy="27" r="3" fill="#CBCBCB"/>
<circle cx="51" cy="27" r="3" fill="#CBCBCB"/>
<circle cx="75" cy="27" r="3" fill="#CBCBCB"/>
<circle cx="99" cy="27" r="3" fill="#CBCBCB"/>
<circle cx="123" cy="27" r="3" fill="#CBCBCB"/>
<circle cx="147" cy="27" r="3" fill="#CBCBCB"/>
<circle cx="171" cy="27" r="3" fill="#CBCBCB"/>
<circle cx="195" cy="27" r="3" fill="#CBCBCB"/>
<circle cx="219" cy="27" r="3" fill="#CBCBCB"/>
<circle cx="243" cy="27" r="3" fill="#CBCBCB"/>
<circle cx="267" cy="27" r="3" fill="#CBCBCB"/>
<circle cx="291" cy="27" r="3" fill="#CBCBCB"/>
<circle cx="315" cy="27" r="3" fill="#CBCBCB"/>
<circle cx="3" cy="51" r="3" fill="#CBCBCB"/>
<circle cx="27" cy="51" r="3" fill="#CBCBCB"/>
<circle cx="51" cy="51" r="3" fill="#CBCBCB"/>
<circle cx="75" cy="51" r="3" fill="#CBCBCB"/>
<circle cx="99" cy="51" r="3" fill="#CBCBCB"/>
<circle cx="123" cy="51" r="3" fill="#CBCBCB"/>
<circle cx="147" cy="51" r="3" fill="#CBCBCB"/>
<circle cx="171" cy="51" r="3" fill="#CBCBCB"/>
<circle cx="195" cy="51" r="3" fill="#CBCBCB"/>
<circle cx="219" cy="51" r="3" fill="#CBCBCB"/>
<circle cx="243" cy="51" r="3" fill="#CBCBCB"/>
<circle cx="267" cy="51" r="3" fill="#CBCBCB"/>
<circle cx="291" cy="51" r="3" fill="#CBCBCB"/>
<circle cx="315" cy="51" r="3" fill="#CBCBCB"/>
<circle cx="3" cy="75" r="3" fill="#CBCBCB"/>
<circle cx="27" cy="75" r="3" fill="#CBCBCB"/>
<circle cx="51" cy="75" r="3" fill="#CBCBCB"/>
<circle cx="75" cy="75" r="3" fill="#CBCBCB"/>
<circle cx="99" cy="75" r="3" fill="#CBCBCB"/>
<circle cx="123" cy="75" r="3" fill="#CBCBCB"/>
<circle cx="147" cy="75" r="3" fill="#CBCBCB"/>
<circle cx="171" cy="75" r="3" fill="#CBCBCB"/>
<circle cx="195" cy="75" r="3" fill="#CBCBCB"/>
<circle cx="219" cy="75" r="3" fill="#CBCBCB"/>
<circle cx="243" cy="75" r="3" fill="#CBCBCB"/>
<circle cx="267" cy="75" r="3" fill="#CBCBCB"/>
<circle cx="291" cy="75" r="3" fill="#CBCBCB"/>
<circle cx="315" cy="75" r="3" fill="#CBCBCB"/>
<circle cx="3" cy="99" r="3" fill="#CBCBCB"/>
<circle cx="27" cy="99" r="3" fill="#CBCBCB"/>
<circle cx="51" cy="99" r="3" fill="#CBCBCB"/>
<circle cx="75" cy="99" r="3" fill="#CBCBCB"/>
<circle cx="99" cy="99" r="3" fill="#CBCBCB"/>
<circle cx="123" cy="99" r="3" fill="#CBCBCB"/>
<circle cx="147" cy="99" r="3" fill="#CBCBCB"/>
<circle cx="171" cy="99" r="3" fill="#CBCBCB"/>
<circle cx="195" cy="99" r="3" fill="#CBCBCB"/>
<circle cx="219" cy="99" r="3" fill="#CBCBCB"/>
<circle cx="243" cy="99" r="3" fill="#CBCBCB"/>
<circle cx="267" cy="99" r="3" fill="#CBCBCB"/>
<circle cx="291" cy="99" r="3" fill="#CBCBCB"/>
<circle cx="315" cy="99" r="3" fill="#CBCBCB"/>
<circle cx="3" cy="123" r="3" fill="#CBCBCB"/>
<circle cx="27" cy="123" r="3" fill="#CBCBCB"/>
<circle cx="51" cy="123" r="3" fill="#CBCBCB"/>
<circle cx="75" cy="123" r="3" fill="#CBCBCB"/>
<circle cx="99" cy="123" r="3" fill="#CBCBCB"/>
<circle cx="123" cy="123" r="3" fill="#CBCBCB"/>
<circle cx="147" cy="123" r="3" fill="#CBCBCB"/>
<circle cx="171" cy="123" r="3" fill="#CBCBCB"/>
<circle cx="195" cy="123" r="3" fill="#CBCBCB"/>
<circle cx="219" cy="123" r="3" fill="#CBCBCB"/>
<circle cx="243" cy="123" r="3" fill="#CBCBCB"/>
<circle cx="267" cy="123" r="3" fill="#CBCBCB"/>
<circle cx="291" cy="123" r="3" fill="#CBCBCB"/>
<circle cx="315" cy="123" r="3" fill="#CBCBCB"/>
<circle cx="3" cy="147" r="3" fill="#CBCBCB"/>
<circle cx="27" cy="147" r="3" fill="#CBCBCB"/>
<circle cx="51" cy="147" r="3" fill="#CBCBCB"/>
<circle cx="75" cy="147" r="3" fill="#CBCBCB"/>
<circle cx="99" cy="147" r="3" fill="#CBCBCB"/>
<circle cx="123" cy="147" r="3" fill="#CBCBCB"/>
<circle cx="147" cy="147" r="3" fill="#CBCBCB"/>
<circle cx="171" cy="147" r="3" fill="#CBCBCB"/>
<circle cx="195" cy="147" r="3" fill="#CBCBCB"/>
<circle cx="219" cy="147" r="3" fill="#CBCBCB"/>
<circle cx="243" cy="147" r="3" fill="#CBCBCB"/>
<circle cx="267" cy="147" r="3" fill="#CBCBCB"/>
<circle cx="291" cy="147" r="3" fill="#CBCBCB"/>
<circle cx="315" cy="147" r="3" fill="#CBCBCB"/>
<circle cx="3" cy="171" r="3" fill="#CBCBCB"/>
<circle cx="27" cy="171" r="3" fill="#CBCBCB"/>
<circle cx="51" cy="171" r="3" fill="#CBCBCB"/>
<circle cx="75" cy="171" r="3" fill="#CBCBCB"/>
<circle cx="99" cy="171" r="3" fill="#CBCBCB"/>
<circle cx="123" cy="171" r="3" fill="#CBCBCB"/>
<circle cx="147" cy="171" r="3" fill="#CBCBCB"/>
<circle cx="171" cy="171" r="3" fill="#CBCBCB"/>
<circle cx="195" cy="171" r="3" fill="#CBCBCB"/>
<circle cx="219" cy="171" r="3" fill="#CBCBCB"/>
<circle cx="243" cy="171" r="3" fill="#CBCBCB"/>
<circle cx="267" cy="171" r="3" fill="#CBCBCB"/>
<circle cx="291" cy="171" r="3" fill="#CBCBCB"/>
<circle cx="315" cy="171" r="3" fill="#CBCBCB"/>
<circle cx="3" cy="195" r="3" fill="#CBCBCB"/>
<circle cx="27" cy="195" r="3" fill="#CBCBCB"/>
<circle cx="51" cy="195" r="3" fill="#CBCBCB"/>
<circle cx="75" cy="195" r="3" fill="#CBCBCB"/>
<circle cx="99" cy="195" r="3" fill="#CBCBCB"/>
<circle cx="123" cy="195" r="3" fill="#CBCBCB"/>
<circle cx="147" cy="195" r="3" fill="#CBCBCB"/>
<circle cx="171" cy="195" r="3" fill="#CBCBCB"/>
<circle cx="195" cy="195" r="3" fill="#CBCBCB"/>
<circle cx="219" cy="195" r="3" fill="#CBCBCB"/>
<circle cx="243" cy="195" r="3" fill="#CBCBCB"/>
<circle cx="267" cy="195" r="3" fill="#CBCBCB"/>
<circle cx="291" cy="195" r="3" fill="#CBCBCB"/>
<circle cx="315" cy="195" r="3" fill="#CBCBCB"/>
<circle cx="3" cy="219" r="3" fill="#CBCBCB"/>
<circle cx="27" cy="219" r="3" fill="#CBCBCB"/>
<circle cx="51" cy="219" r="3" fill="#CBCBCB"/>
<circle cx="75" cy="219" r="3" fill="#CBCBCB"/>
<circle cx="99" cy="219" r="3" fill="#CBCBCB"/>
<circle cx="123" cy="219" r="3" fill="#CBCBCB"/>
<circle cx="147" cy="219" r="3" fill="#CBCBCB"/>
<circle cx="171" cy="219" r="3" fill="#CBCBCB"/>
<circle cx="195" cy="219" r="3" fill="#CBCBCB"/>
<circle cx="219" cy="219" r="3" fill="#CBCBCB"/>
<circle cx="243" cy="219" r="3" fill="#CBCBCB"/>
<circle cx="267" cy="219" r="3" fill="#CBCBCB"/>
<circle cx="291" cy="219" r="3" fill="#CBCBCB"/>
<circle cx="315" cy="219" r="3" fill="#CBCBCB"/>
<circle cx="3" cy="243" r="3" fill="#CBCBCB"/>
<circle cx="27" cy="243" r="3" fill="#CBCBCB"/>
<circle cx="51" cy="243" r="3" fill="#CBCBCB"/>
<circle cx="75" cy="243" r="3" fill="#CBCBCB"/>
<circle cx="99" cy="243" r="3" fill="#CBCBCB"/>
<circle cx="123" cy="243" r="3" fill="#CBCBCB"/>
<circle cx="147" cy="243" r="3" fill="#CBCBCB"/>
<circle cx="171" cy="243" r="3" fill="#CBCBCB"/>
<circle cx="195" cy="243" r="3" fill="#CBCBCB"/>
<circle cx="219" cy="243" r="3" fill="#CBCBCB"/>
<circle cx="243" cy="243" r="3" fill="#CBCBCB"/>
<circle cx="267" cy="243" r="3" fill="#CBCBCB"/>
<circle cx="291" cy="243" r="3" fill="#CBCBCB"/>
<circle cx="315" cy="243" r="3" fill="#CBCBCB"/>
<circle cx="3" cy="267" r="3" fill="#CBCBCB"/>
<circle cx="27" cy="267" r="3" fill="#CBCBCB"/>
<circle cx="51" cy="267" r="3" fill="#CBCBCB"/>
<circle cx="75" cy="267" r="3" fill="#CBCBCB"/>
<circle cx="99" cy="267" r="3" fill="#CBCBCB"/>
<circle cx="123" cy="267" r="3" fill="#CBCBCB"/>
<circle cx="147" cy="267" r="3" fill="#CBCBCB"/>
<circle cx="171" cy="267" r="3" fill="#CBCBCB"/>
<circle cx="195" cy="267" r="3" fill="#CBCBCB"/>
<circle cx="219" cy="267" r="3" fill="#CBCBCB"/>
<circle cx="243" cy="267" r="3" fill="#CBCBCB"/>
<circle cx="267" cy="267" r="3" fill="#CBCBCB"/>
<circle cx="291" cy="267" r="3" fill="#CBCBCB"/>
<circle cx="315" cy="267" r="3" fill="#CBCBCB"/>
<circle cx="3" cy="291" r="3" fill="#CBCBCB"/>
<circle cx="27" cy="291" r="3" fill="#CBCBCB"/>
<circle cx="51" cy="291" r="3" fill="#CBCBCB"/>
<circle cx="75" cy="291" r="3" fill="#CBCBCB"/>
<circle cx="99" cy="291" r="3" fill="#CBCBCB"/>
<circle cx="123" cy="291" r="3" fill="#CBCBCB"/>
<circle cx="147" cy="291" r="3" fill="#CBCBCB"/>
<circle cx="171" cy="291" r="3" fill="#CBCBCB"/>
<circle cx="195" cy="291" r="3" fill="#CBCBCB"/>
<circle cx="219" cy="291" r="3" fill="#CBCBCB"/>
<circle cx="243" cy="291" r="3" fill="#CBCBCB"/>
<circle cx="267" cy="291" r="3" fill="#CBCBCB"/>
<circle cx="291" cy="291" r="3" fill="#CBCBCB"/>
<circle cx="315" cy="291" r="3" fill="#CBCBCB"/>
<circle cx="3" cy="315" r="3" fill="#CBCBCB"/>
<circle cx="27" cy="315" r="3" fill="#CBCBCB"/>
<circle cx="51" cy="315" r="3" fill="#CBCBCB"/>
<circle cx="75" cy="315" r="3" fill="#CBCBCB"/>
<circle cx="99" cy="315" r="3" fill="#CBCBCB"/>
<circle cx="123" cy="315" r="3" fill="#CBCBCB"/>
<circle cx="147" cy="315" r="3" fill="#CBCBCB"/>
<circle cx="171" cy="315" r="3" fill="#CBCBCB"/>
<circle cx="195" cy="315" r="3" fill="#CBCBCB"/>
<circle cx="219" cy="315" r="3" fill="#CBCBCB"/>
<circle cx="243" cy="315" r="3" fill="#CBCBCB"/>
<circle cx="267" cy="315" r="3" fill="#CBCBCB"/>
<circle cx="291" cy="315" r="3" fill="#CBCBCB"/>
<circle cx="315" cy="315" r="3" fill="#CBCBCB"/>
</svg>
