<svg width="606" height="592" viewBox="0 0 606 592" fill="none" xmlns="http://www.w3.org/2000/svg">
<path d="M165.417 375.573L134.593 289.705C131.441 280.925 132.628 271.171 137.794 263.403L198.773 171.703C204.667 162.839 214.88 157.838 225.496 158.618L321.846 165.689C333.216 166.523 343.087 173.834 347.2 184.467L384.25 280.251C387.948 289.812 386.418 300.607 380.209 308.763L317.107 391.65C311.015 399.652 301.266 404 291.242 403.184L190.789 395.009C179.251 394.069 169.328 386.468 165.417 375.573Z" stroke="#7D7FA9" stroke-opacity="0.18" stroke-width="5"/>
<path d="M253.469 179.068C259.863 169.453 270.941 164.028 282.457 164.873L397.351 173.305C409.685 174.21 420.393 182.141 424.854 193.675L468.874 307.478C472.886 317.849 471.226 329.559 464.491 338.406L389.791 436.528C383.183 445.208 372.607 449.924 361.734 449.039L242.288 439.318C229.772 438.299 219.008 430.054 214.766 418.235L178.012 315.849C174.593 306.325 175.881 295.745 181.484 287.318L253.469 179.068Z" fill="#282A59"/>
<path d="M217.119 417.39L180.365 315.005C177.213 306.224 178.4 296.471 183.566 288.703L255.551 180.452C261.445 171.588 271.658 166.587 282.275 167.366L397.168 175.798C408.538 176.633 418.41 183.944 422.523 194.577L466.543 308.38C470.241 317.941 468.711 328.736 462.502 336.892L387.802 435.014C381.71 443.016 371.961 447.363 361.937 446.547L242.491 436.826C230.953 435.887 221.03 428.286 217.119 417.39Z" stroke="#7D7FA9" stroke-opacity="0.18" stroke-width="5"/>
</svg>
