<svg width="32" height="32" viewBox="0 0 32 32" fill="none" xmlns="http://www.w3.org/2000/svg">
<path d="M14.1745 31.3627C22.0029 31.3627 28.3491 24.984 28.3491 17.1154C28.3491 9.24688 22.0029 2.86816 14.1745 2.86816C6.34616 2.86816 0 9.24688 0 17.1154C0 24.984 6.34616 31.3627 14.1745 31.3627Z" fill="#7BC8FF"/>
<path d="M10.582 16.8682L8.58203 19.2536C9.28296 20.7383 10.475 21.9354 11.9566 22.6427C12.6911 22.0463 13.6293 21.2391 14.3711 20.6354" fill="#043582"/>
<path d="M23.0986 14.9842V18.4896C23.0977 20.9826 22.1123 23.3742 20.3568 25.1442L16.9241 28.5915L16.4877 20.1333L23.0986 14.9842ZM16.3204 8.11873L12.6768 8.00964C11.4457 8.0098 10.2269 8.25414 9.09086 8.72852C7.95484 9.2029 6.92421 9.8979 6.0586 10.7733L2.61133 14.2133L11.0259 14.6496L16.3131 8.10419L16.3204 8.11873Z" fill="#073984"/>
<path d="M10.0156 15.9151C11.2089 18.1184 13.0117 19.9314 15.2084 21.1369L24.6774 13.7478C26.6165 12.2342 28.2063 10.3202 29.3383 8.13638C30.4704 5.95253 31.1182 3.55021 31.2374 1.09326L31.2447 0.80235C31.2513 0.694325 31.2346 0.586146 31.1958 0.48512C31.157 0.384093 31.097 0.292572 31.0197 0.216737C30.9425 0.140903 30.8499 0.082522 30.7482 0.0455372C30.6465 0.00855235 30.5381 -0.00617481 30.4302 0.00235043L29.8847 0.0314413C27.5432 0.183935 25.2587 0.820447 23.1757 1.90076C21.0927 2.98107 19.2564 4.48169 17.7829 6.30781L10.0156 15.9151Z" fill="#F1F1F1"/>
<path d="M23.4713 11.0274C25.1382 11.0274 26.4895 9.66957 26.4895 7.99464C26.4895 6.31971 25.1382 4.96191 23.4713 4.96191C21.8044 4.96191 20.4531 6.31971 20.4531 7.99464C20.4531 9.66957 21.8044 11.0274 23.4713 11.0274Z" fill="#073984"/>
<path d="M17.5719 15.1805C18.4033 15.1805 19.0773 14.5032 19.0773 13.6678C19.0773 12.8323 18.4033 12.155 17.5719 12.155C16.7404 12.155 16.0664 12.8323 16.0664 13.6678C16.0664 14.5032 16.7404 15.1805 17.5719 15.1805Z" fill="#073984"/>
<path d="M8.20305 20.3955L2.12305 24.6137C3.21396 26.3737 4.67577 27.8864 6.39941 29.021L10.6612 22.8537C9.65093 22.2529 8.80807 21.4076 8.21032 20.3955H8.20305Z" fill="#043582"/>
</svg>
