<svg width="667" height="647" viewBox="0 0 667 647" fill="none" xmlns="http://www.w3.org/2000/svg">
<path d="M363.745 319.333C362.842 339.355 345.868 354.854 325.832 353.951C305.796 353.048 290.286 336.085 291.189 316.063C292.092 296.04 309.067 280.541 329.102 281.444C349.138 282.347 364.648 299.311 363.745 319.333Z" fill="#3D3F7C"/>
<path d="M286.164 105.138C285.924 110.478 281.397 114.611 276.054 114.37C270.711 114.129 266.575 109.606 266.816 104.266C267.057 98.9272 271.583 94.7941 276.926 95.0349C282.269 95.2757 286.405 99.7992 286.164 105.138Z" fill="#3D3F7C"/>
<path d="M464.046 137.374C463.805 142.713 459.279 146.846 453.936 146.605C448.593 146.365 444.457 141.841 444.698 136.502C444.939 131.162 449.465 127.029 454.808 127.27C460.151 127.511 464.287 132.035 464.046 137.374Z" fill="#3D3F7C"/>
<path d="M537.515 227.872C537.274 233.211 532.748 237.344 527.405 237.103C522.062 236.862 517.926 232.339 518.167 227C518.408 221.66 522.934 217.527 528.277 217.768C533.62 218.009 537.756 222.532 537.515 227.872Z" fill="#3D3F7C"/>
<path d="M510.454 183.058C510.214 188.397 505.687 192.53 500.344 192.289C495.001 192.048 490.865 187.525 491.106 182.186C491.347 176.846 495.873 172.713 501.216 172.954C506.559 173.195 510.695 177.718 510.454 183.058Z" fill="#3D3F7C"/>
<path d="M552.938 315.75C552.697 321.09 548.171 325.223 542.828 324.982C537.485 324.741 533.349 320.217 533.59 314.878C533.831 309.539 538.357 305.406 543.7 305.647C549.043 305.888 553.179 310.411 552.938 315.75Z" fill="#3D3F7C"/>
<path d="M554.9 272.245C554.66 277.585 550.133 281.718 544.79 281.477C539.447 281.236 535.311 276.713 535.552 271.373C535.793 266.034 540.319 261.901 545.662 262.142C551.005 262.383 555.141 266.906 554.9 272.245Z" fill="#3D3F7C"/>
<path d="M529.013 416.388C528.772 421.728 524.245 425.861 518.902 425.62C513.559 425.379 509.423 420.856 509.664 415.516C509.905 410.177 514.431 406.044 519.774 406.285C525.117 406.526 529.253 411.049 529.013 416.388Z" fill="#3D3F7C"/>
<path d="M550.54 368.922C550.299 374.261 545.773 378.395 540.43 378.154C535.087 377.913 530.951 373.389 531.192 368.05C531.432 362.711 535.959 358.578 541.302 358.819C546.645 359.059 550.781 363.583 550.54 368.922Z" fill="#3D3F7C"/>
<path d="M457.805 490.677C457.564 496.016 453.037 500.149 447.694 499.908C442.351 499.667 438.215 495.144 438.456 489.805C438.697 484.465 443.223 480.332 448.566 480.573C453.909 480.814 458.045 485.337 457.805 490.677Z" fill="#3D3F7C"/>
<path d="M497.809 463.418C497.569 468.757 493.042 472.89 487.699 472.649C482.356 472.408 478.22 467.885 478.461 462.546C478.702 457.206 483.228 453.073 488.571 453.314C493.914 453.555 498.05 458.078 497.809 463.418Z" fill="#3D3F7C"/>
<path d="M330.079 528.512C329.838 533.851 325.311 537.984 319.969 537.744C314.626 537.503 310.49 532.979 310.73 527.64C310.971 522.301 315.498 518.168 320.841 518.408C326.183 518.649 330.32 523.173 330.079 528.512Z" fill="#3D3F7C"/>
<path d="M403.07 522.115C402.829 527.455 398.303 531.588 392.96 531.347C387.617 531.106 383.481 526.582 383.722 521.243C383.963 515.904 388.489 511.771 393.832 512.012C399.175 512.252 403.311 516.776 403.07 522.115Z" fill="#3D3F7C"/>
<path d="M196.602 478.904C196.361 484.243 191.834 488.376 186.491 488.135C181.148 487.894 177.012 483.371 177.253 478.032C177.494 472.692 182.02 468.559 187.363 468.8C192.706 469.041 196.842 473.565 196.602 478.904Z" fill="#3D3F7C"/>
<path d="M253.339 510.523C253.099 515.862 248.572 519.996 243.229 519.755C237.886 519.514 233.75 514.99 233.991 509.651C234.232 504.312 238.758 500.179 244.101 500.42C249.444 500.66 253.58 505.184 253.339 510.523Z" fill="#3D3F7C"/>
<path d="M137.426 393.894C137.185 399.234 132.659 403.367 127.316 403.126C121.973 402.885 117.837 398.362 118.078 393.022C118.318 387.683 122.845 383.55 128.188 383.791C133.531 384.032 137.667 388.555 137.426 393.894Z" fill="#3D3F7C"/>
<path d="M159.649 438.488C159.408 443.828 154.882 447.961 149.539 447.72C144.196 447.479 140.06 442.955 140.301 437.616C140.542 432.277 145.068 428.144 150.411 428.385C155.754 428.626 159.89 433.149 159.649 438.488Z" fill="#3D3F7C"/>
<path d="M122.001 306.014C121.76 311.353 117.234 315.486 111.891 315.245C106.548 315.004 102.412 310.481 102.653 305.142C102.893 299.802 107.42 295.669 112.763 295.91C118.106 296.151 122.242 300.674 122.001 306.014Z" fill="#3D3F7C"/>
<path d="M155.602 205.814C155.361 211.153 150.835 215.286 145.492 215.045C140.149 214.804 136.013 210.281 136.254 204.942C136.495 199.602 141.021 195.469 146.364 195.71C151.707 195.951 155.843 200.474 155.602 205.814Z" fill="#3D3F7C"/>
<path d="M227.028 126.691C226.787 132.03 222.261 136.163 216.918 135.922C211.575 135.682 207.439 131.158 207.68 125.819C207.921 120.48 212.447 116.346 217.79 116.587C223.133 116.828 227.269 121.352 227.028 126.691Z" fill="#3D3F7C"/>
<path d="M186.805 158.785C186.565 164.124 182.038 168.257 176.695 168.016C171.352 167.775 167.216 163.252 167.457 157.912C167.698 152.573 172.224 148.44 177.567 148.681C182.91 148.922 187.046 153.445 186.805 158.785Z" fill="#3D3F7C"/>
<path d="M134.075 253.279C133.834 258.618 129.308 262.751 123.965 262.511C118.622 262.27 114.486 257.746 114.727 252.407C114.967 247.068 119.494 242.935 124.837 243.175C130.18 243.416 134.316 247.94 134.075 253.279Z" fill="#3D3F7C"/>
<path d="M124.877 349.737C124.636 355.076 120.109 359.209 114.766 358.968C109.424 358.727 105.287 354.204 105.528 348.865C105.769 343.525 110.296 339.392 115.639 339.633C120.981 339.874 125.117 344.397 124.877 349.737Z" fill="#3D3F7C"/>
<path d="M588.928 209.367C588.777 212.704 585.948 215.287 582.609 215.136C579.27 214.986 576.685 212.159 576.835 208.822C576.986 205.485 579.815 202.901 583.154 203.052C586.493 203.202 589.079 206.03 588.928 209.367Z" fill="#3D3F7C"/>
<path d="M554.881 152.99C554.73 156.327 551.901 158.91 548.562 158.76C545.223 158.609 542.638 155.782 542.788 152.445C542.939 149.108 545.768 146.525 549.107 146.675C552.446 146.826 555.032 149.653 554.881 152.99Z" fill="#3D3F7C"/>
<path d="M608.332 319.927C608.182 323.264 605.353 325.847 602.014 325.697C598.674 325.546 596.089 322.719 596.24 319.382C596.39 316.045 599.219 313.462 602.559 313.612C605.898 313.763 608.483 316.59 608.332 319.927Z" fill="#3D3F7C"/>
<path d="M610.801 265.195C610.651 268.533 607.821 271.116 604.482 270.965C601.143 270.815 598.558 267.987 598.708 264.65C598.859 261.313 601.688 258.73 605.027 258.881C608.366 259.031 610.952 261.858 610.801 265.195Z" fill="#3D3F7C"/>
<path d="M578.231 446.535C578.081 449.872 575.251 452.456 571.912 452.305C568.573 452.155 565.988 449.327 566.138 445.99C566.289 442.653 569.118 440.07 572.457 440.221C575.796 440.371 578.382 443.198 578.231 446.535Z" fill="#3D3F7C"/>
<path d="M605.315 386.82C605.165 390.157 602.336 392.74 598.996 392.59C595.657 392.439 593.072 389.612 593.223 386.275C593.373 382.938 596.202 380.355 599.542 380.505C602.881 380.656 605.466 383.483 605.315 386.82Z" fill="#3D3F7C"/>
<path d="M488.646 539.994C488.496 543.331 485.667 545.914 482.327 545.764C478.988 545.613 476.403 542.786 476.553 539.449C476.704 536.112 479.533 533.529 482.872 533.679C486.212 533.83 488.797 536.657 488.646 539.994Z" fill="#3D3F7C"/>
<path d="M538.973 505.701C538.822 509.038 535.993 511.621 532.654 511.471C529.315 511.32 526.73 508.493 526.88 505.156C527.031 501.819 529.86 499.236 533.199 499.386C536.538 499.537 539.123 502.364 538.973 505.701Z" fill="#3D3F7C"/>
<path d="M327.959 587.593C327.808 590.931 324.979 593.514 321.64 593.363C318.3 593.213 315.715 590.385 315.866 587.048C316.016 583.711 318.845 581.128 322.185 581.279C325.524 581.429 328.109 584.256 327.959 587.593Z" fill="#3D3F7C"/>
<path d="M419.788 579.545C419.638 582.882 416.809 585.465 413.47 585.315C410.13 585.164 407.545 582.337 407.696 579C407.846 575.663 410.675 573.08 414.015 573.231C417.354 573.381 419.939 576.208 419.788 579.545Z" fill="#3D3F7C"/>
<path d="M160.038 525.183C159.888 528.52 157.059 531.103 153.719 530.953C150.38 530.802 147.795 527.975 147.946 524.638C148.096 521.301 150.925 518.718 154.264 518.868C157.604 519.019 160.189 521.846 160.038 525.183Z" fill="#3D3F7C"/>
<path d="M231.417 564.962C231.267 568.299 228.438 570.882 225.098 570.732C221.759 570.581 219.174 567.754 219.325 564.417C219.475 561.08 222.304 558.497 225.643 558.647C228.983 558.798 231.568 561.625 231.417 564.962Z" fill="#3D3F7C"/>
<path d="M85.5915 418.237C85.441 421.574 82.6119 424.157 79.2726 424.007C75.9333 423.856 73.3482 421.029 73.4988 417.692C73.6493 414.355 76.4783 411.772 79.8176 411.922C83.1569 412.073 85.742 414.9 85.5915 418.237Z" fill="#3D3F7C"/>
<path d="M113.547 474.339C113.397 477.676 110.568 480.259 107.228 480.109C103.889 479.958 101.304 477.131 101.455 473.794C101.605 470.457 104.434 467.874 107.773 468.024C111.113 468.175 113.698 471.002 113.547 474.339Z" fill="#3D3F7C"/>
<path d="M66.187 307.678C66.0365 311.015 63.2074 313.598 59.8681 313.447C56.5288 313.297 53.9437 310.47 54.0942 307.133C54.2448 303.795 57.0738 301.212 60.4131 301.363C63.7524 301.513 66.3375 304.341 66.187 307.678Z" fill="#3D3F7C"/>
<path d="M108.458 181.618C108.308 184.955 105.479 187.538 102.139 187.388C98.7999 187.237 96.2149 184.41 96.3654 181.073C96.5159 177.736 99.345 175.153 102.684 175.303C106.024 175.454 108.609 178.281 108.458 181.618Z" fill="#3D3F7C"/>
<path d="M147.712 122.451C147.562 125.788 144.733 128.371 141.393 128.221C138.054 128.07 135.469 125.243 135.619 121.906C135.77 118.569 138.599 115.986 141.938 116.136C145.278 116.287 147.863 119.114 147.712 122.451Z" fill="#3D3F7C"/>
<path d="M81.3738 241.333C81.2233 244.67 78.3942 247.253 75.0549 247.103C71.7156 246.952 69.1305 244.125 69.281 240.788C69.4316 237.451 72.2606 234.868 75.5999 235.018C78.9392 235.169 81.5243 237.996 81.3738 241.333Z" fill="#3D3F7C"/>
<path d="M69.8012 362.683C69.6507 366.02 66.8216 368.604 63.4823 368.453C60.143 368.303 57.558 365.475 57.7085 362.138C57.859 358.801 60.6881 356.218 64.0274 356.369C67.3667 356.519 69.9517 359.346 69.8012 362.683Z" fill="#3D3F7C"/>
<path d="M640.695 194.444C640.515 198.438 637.129 201.53 633.132 201.349C629.136 201.169 626.042 197.786 626.222 193.792C626.402 189.798 629.788 186.706 633.785 186.886C637.781 187.066 640.875 190.45 640.695 194.444Z" fill="#3D3F7C"/>
<path d="M599.95 126.971C599.77 130.965 596.384 134.057 592.388 133.877C588.391 133.697 585.297 130.313 585.477 126.319C585.657 122.325 589.043 119.233 593.04 119.413C597.037 119.594 600.13 122.977 599.95 126.971Z" fill="#3D3F7C"/>
<path d="M663.92 326.768C663.74 330.761 660.354 333.853 656.357 333.673C652.361 333.493 649.267 330.109 649.447 326.115C649.627 322.121 653.013 319.03 657.009 319.21C661.006 319.39 664.1 322.774 663.92 326.768Z" fill="#3D3F7C"/>
<path d="M666.874 261.261C666.694 265.255 663.308 268.347 659.312 268.167C655.315 267.987 652.221 264.603 652.401 260.609C652.581 256.615 655.967 253.523 659.964 253.704C663.961 253.884 667.054 257.267 666.874 261.261Z" fill="#3D3F7C"/>
<path d="M627.893 478.297C627.713 482.29 624.327 485.382 620.33 485.202C616.333 485.022 613.239 481.638 613.42 477.644C613.6 473.65 616.986 470.559 620.982 470.739C624.979 470.919 628.073 474.303 627.893 478.297Z" fill="#3D3F7C"/>
<path d="M660.309 406.826C660.129 410.82 656.743 413.912 652.746 413.732C648.75 413.552 645.656 410.168 645.836 406.174C646.016 402.18 649.402 399.089 653.399 399.269C657.395 399.449 660.489 402.833 660.309 406.826Z" fill="#3D3F7C"/>
<path d="M520.678 590.152C520.498 594.146 517.112 597.238 513.116 597.058C509.119 596.878 506.025 593.494 506.205 589.5C506.385 585.506 509.771 582.415 513.768 582.595C517.764 582.775 520.858 586.158 520.678 590.152Z" fill="#3D3F7C"/>
<path d="M580.911 549.108C580.731 553.102 577.345 556.193 573.348 556.013C569.351 555.833 566.258 552.449 566.438 548.456C566.618 544.462 570.004 541.37 574 541.55C577.997 541.73 581.091 545.114 580.911 549.108Z" fill="#3D3F7C"/>
<path d="M328.359 647.122C328.179 651.116 324.793 654.208 320.796 654.028C316.8 653.848 313.706 650.464 313.886 646.47C314.066 642.476 317.452 639.385 321.448 639.565C325.445 639.745 328.539 643.129 328.359 647.122Z" fill="#3D3F7C"/>
<path d="M438.261 637.491C438.081 641.485 434.695 644.576 430.699 644.396C426.702 644.216 423.608 640.832 423.788 636.838C423.968 632.844 427.354 629.753 431.351 629.933C435.348 630.113 438.442 633.497 438.261 637.491Z" fill="#3D3F7C"/>
<path d="M127.383 572.426C127.203 576.42 123.817 579.511 119.82 579.331C115.823 579.151 112.729 575.767 112.91 571.773C113.09 567.779 116.476 564.688 120.472 564.868C124.469 565.048 127.563 568.432 127.383 572.426Z" fill="#3D3F7C"/>
<path d="M212.812 620.033C212.632 624.027 209.246 627.119 205.249 626.939C201.252 626.759 198.158 623.375 198.339 619.381C198.519 615.387 201.905 612.295 205.901 612.476C209.898 612.656 212.992 616.039 212.812 620.033Z" fill="#3D3F7C"/>
<path d="M38.2787 444.428C38.0986 448.421 34.7127 451.513 30.716 451.333C26.7194 451.153 23.6255 447.769 23.8056 443.775C23.9858 439.781 27.3717 436.69 31.3684 436.87C35.365 437.05 38.4589 440.434 38.2787 444.428Z" fill="#3D3F7C"/>
<path d="M71.7417 511.575C71.5615 515.569 68.1756 518.661 64.179 518.481C60.1823 518.301 57.0885 514.917 57.2686 510.923C57.4487 506.929 60.8347 503.837 64.8313 504.018C68.8279 504.198 71.9218 507.581 71.7417 511.575Z" fill="#3D3F7C"/>
<path d="M15.0562 312.105C14.876 316.099 11.4901 319.191 7.49346 319.011C3.49683 318.83 0.402942 315.447 0.583079 311.453C0.763215 307.459 4.14916 304.367 8.14579 304.547C12.1424 304.728 15.2363 308.111 15.0562 312.105Z" fill="#3D3F7C"/>
<path d="M65.649 161.233C65.4689 165.227 62.083 168.318 58.0863 168.138C54.0897 167.958 50.9958 164.574 51.1759 160.58C51.3561 156.587 54.742 153.495 58.7387 153.675C62.7353 153.855 65.8292 157.239 65.649 161.233Z" fill="#3D3F7C"/>
<path d="M33.2328 232.702C33.0527 236.696 29.6667 239.787 25.6701 239.607C21.6735 239.427 18.5796 236.043 18.7597 232.049C18.9399 228.055 22.3258 224.964 26.3224 225.144C30.3191 225.324 33.413 228.708 33.2328 232.702Z" fill="#3D3F7C"/>
<path d="M19.3856 377.939C19.2055 381.933 15.8195 385.024 11.8229 384.844C7.82627 384.664 4.73238 381.28 4.91252 377.286C5.09266 373.292 8.4786 370.201 12.4752 370.381C16.4719 370.561 19.5657 373.945 19.3856 377.939Z" fill="#3D3F7C"/>
<path d="M353.456 160.885C353.109 168.582 346.583 174.54 338.881 174.193C331.179 173.846 325.217 167.325 325.564 159.628C325.911 151.931 332.436 145.973 340.138 146.32C347.841 146.667 353.803 153.188 353.456 160.885Z" fill="#3D3F7C"/>
<path d="M493.374 260.289C493.027 267.986 486.501 273.944 478.799 273.597C471.097 273.249 465.135 266.728 465.482 259.032C465.829 251.335 472.354 245.377 480.056 245.724C487.758 246.071 493.721 252.592 493.374 260.289Z" fill="#3D3F7C"/>
<path d="M491.736 399.862C491.389 407.559 484.864 413.517 477.162 413.17C469.46 412.823 463.497 406.302 463.844 398.605C464.192 390.908 470.717 384.95 478.419 385.297C486.121 385.645 492.083 392.165 491.736 399.862Z" fill="#3D3F7C"/>
<path d="M442.317 462.804C441.97 470.501 435.445 476.459 427.743 476.111C420.041 475.764 414.078 469.243 414.426 461.547C414.773 453.85 421.298 447.892 429 448.239C436.702 448.586 442.664 455.107 442.317 462.804Z" fill="#3D3F7C"/>
<path d="M343.228 490.923C342.881 498.62 336.355 504.578 328.653 504.231C320.951 503.884 314.989 497.363 315.336 489.666C315.683 481.969 322.208 476.011 329.91 476.358C337.613 476.705 343.575 483.226 343.228 490.923Z" fill="#3D3F7C"/>
<path d="M237.777 453.585C237.43 461.282 230.905 467.24 223.203 466.892C215.5 466.545 209.538 460.024 209.885 452.327C210.232 444.631 216.758 438.673 224.46 439.02C232.162 439.367 238.124 445.888 237.777 453.585Z" fill="#3D3F7C"/>
<path d="M189.784 381.597C189.437 389.294 182.912 395.252 175.21 394.905C167.508 394.558 161.545 388.037 161.893 380.34C162.24 372.643 168.765 366.685 176.467 367.032C184.169 367.38 190.132 373.901 189.784 381.597Z" fill="#3D3F7C"/>
<path d="M183.421 316.143C183.074 323.84 176.549 329.798 168.847 329.451C161.145 329.104 155.182 322.583 155.529 314.886C155.877 307.189 162.402 301.231 170.104 301.579C177.806 301.926 183.768 308.447 183.421 316.143Z" fill="#3D3F7C"/>
<path d="M205.159 247.298C204.812 254.995 198.286 260.953 190.584 260.606C182.882 260.259 176.92 253.738 177.267 246.041C177.614 238.344 184.139 232.386 191.841 232.733C199.543 233.08 205.506 239.601 205.159 247.298Z" fill="#3D3F7C"/>
<path d="M254.37 189.003C254.023 196.7 247.497 202.658 239.795 202.311C232.093 201.963 226.131 195.443 226.478 187.746C226.825 180.049 233.35 174.091 241.052 174.438C248.755 174.785 254.717 181.306 254.37 189.003Z" fill="#3D3F7C"/>
<path d="M440.314 197.384C439.967 205.081 433.441 211.039 425.739 210.692C418.037 210.344 412.075 203.823 412.422 196.127C412.769 188.43 419.294 182.472 426.996 182.819C434.699 183.166 440.661 189.687 440.314 197.384Z" fill="#3D3F7C"/>
<path d="M508.825 330.81C508.478 338.507 501.953 344.465 494.251 344.118C486.549 343.771 480.586 337.25 480.934 329.553C481.281 321.856 487.806 315.898 495.508 316.245C503.21 316.592 509.172 323.113 508.825 330.81Z" fill="#3D3F7C"/>
<path d="M346.259 229.195C345.892 237.346 338.982 243.655 330.825 243.288C322.669 242.92 316.355 236.014 316.722 227.864C317.09 219.713 324 213.403 332.157 213.771C340.313 214.138 346.627 221.044 346.259 229.195Z" fill="#3D3F7C"/>
<path d="M428.56 279.383C428.192 287.534 421.282 293.844 413.126 293.476C404.969 293.108 398.655 286.203 399.023 278.052C399.391 269.901 406.301 263.591 414.457 263.959C422.614 264.327 428.928 271.232 428.56 279.383Z" fill="#3D3F7C"/>
<path d="M425.137 355.284C424.769 363.434 417.859 369.744 409.703 369.376C401.546 369.009 395.232 362.103 395.6 353.952C395.967 345.801 402.877 339.492 411.034 339.859C419.19 340.227 425.504 347.133 425.137 355.284Z" fill="#3D3F7C"/>
<path d="M338.082 410.513C337.714 418.663 330.804 424.973 322.647 424.605C314.491 424.238 308.177 417.332 308.544 409.181C308.912 401.03 315.822 394.721 323.979 395.088C332.135 395.456 338.449 402.362 338.082 410.513Z" fill="#3D3F7C"/>
<path d="M256.351 347.676C255.984 355.827 249.074 362.136 240.917 361.769C232.761 361.401 226.447 354.496 226.814 346.345C227.182 338.194 234.092 331.884 242.248 332.252C250.405 332.62 256.719 339.525 256.351 347.676Z" fill="#3D3F7C"/>
<path d="M268.214 272.156C267.847 280.307 260.937 286.616 252.78 286.249C244.624 285.881 238.31 278.976 238.677 270.825C239.045 262.674 245.955 256.364 254.111 256.732C262.268 257.099 268.582 264.005 268.214 272.156Z" fill="#3D3F7C"/>
<path d="M356.008 107.503C355.418 112.814 350.629 116.642 345.314 116.051C339.998 115.461 336.168 110.676 336.759 105.364C337.35 100.052 342.138 96.2243 347.454 96.8149C352.769 97.4056 356.599 102.191 356.008 107.503Z" fill="#3D3F7C"/>
<path d="M418.035 119.264C417.444 124.576 412.656 128.403 407.34 127.813C402.025 127.222 398.195 122.437 398.786 117.125C399.377 111.813 404.165 107.986 409.48 108.576C414.796 109.167 418.626 113.952 418.035 119.264Z" fill="#3D3F7C"/>
<path d="M361.058 55.7271C360.688 59.047 357.696 61.4391 354.373 61.07C351.051 60.7008 348.657 57.7102 349.027 54.3902C349.396 51.0703 352.389 48.6782 355.711 49.0473C359.033 49.4165 361.427 52.4071 361.058 55.7271Z" fill="#3D3F7C"/>
<path d="M287.063 59.7542C286.693 63.0741 283.701 65.4662 280.379 65.0971C277.056 64.7279 274.663 61.7373 275.032 58.4173C275.401 55.0974 278.394 52.7053 281.716 53.0744C285.038 53.4436 287.432 56.4342 287.063 59.7542Z" fill="#3D3F7C"/>
<path d="M439.094 70.5236C438.725 73.8436 435.732 76.2357 432.41 75.8665C429.088 75.4973 426.694 72.5067 427.063 69.1867C427.432 65.8668 430.425 63.4747 433.747 63.8438C437.069 64.213 439.463 67.2036 439.094 70.5236Z" fill="#3D3F7C"/>
<path d="M507.706 114.897C507.337 118.217 504.345 120.609 501.022 120.24C497.7 119.871 495.306 116.881 495.676 113.561C496.045 110.241 499.038 107.848 502.36 108.218C505.682 108.587 508.076 111.577 507.706 114.897Z" fill="#3D3F7C"/>
<path d="M211.046 81.9323C210.676 85.2523 207.684 87.6444 204.361 87.2752C201.039 86.906 198.645 83.9154 199.015 80.5954C199.384 77.2755 202.377 74.8834 205.699 75.2525C209.021 75.6217 211.415 78.6123 211.046 81.9323Z" fill="#3D3F7C"/>
<path d="M368.147 9.02934C367.705 13.0028 364.123 15.8658 360.147 15.4239C356.171 14.9821 353.306 11.4028 353.748 7.42932C354.19 3.45584 357.771 0.592878 361.747 1.03471C365.724 1.47654 368.589 5.05586 368.147 9.02934Z" fill="#3D3F7C"/>
<path d="M279.584 13.8492C279.142 17.8227 275.561 20.6857 271.585 20.2438C267.608 19.802 264.743 16.2227 265.185 12.2492C265.627 8.27572 269.209 5.41276 273.185 5.85459C277.161 6.29642 280.026 9.87574 279.584 13.8492Z" fill="#3D3F7C"/>
<path d="M461.539 26.7361C461.097 30.7096 457.516 33.5726 453.539 33.1307C449.563 32.6889 446.698 29.1096 447.14 25.1361C447.582 21.1626 451.164 18.2997 455.14 18.7415C459.116 19.1833 461.981 22.7626 461.539 26.7361Z" fill="#3D3F7C"/>
<path d="M543.658 79.8437C543.216 83.8172 539.634 86.6802 535.658 86.2383C531.682 85.7965 528.816 82.2172 529.258 78.2437C529.7 74.2702 533.282 71.4073 537.258 71.8491C541.235 72.2909 544.1 75.8703 543.658 79.8437Z" fill="#3D3F7C"/>
<path d="M188.604 40.3892C188.162 44.3627 184.58 47.2256 180.604 46.7838C176.628 46.342 173.763 42.7627 174.205 38.7892C174.647 34.8157 178.229 31.9527 182.205 32.3946C186.181 32.8364 189.046 36.4157 188.604 40.3892Z" fill="#3D3F7C"/>
<path d="M124.998 84.6381C124.556 88.6116 120.974 91.4745 116.998 91.0327C113.021 90.5909 110.156 87.0116 110.598 83.0381C111.04 79.0646 114.622 76.2016 118.598 76.6435C122.575 77.0853 125.44 80.6646 124.998 84.6381Z" fill="#3D3F7C"/>
</svg>
