<svg width="1666" height="1612" viewBox="0 0 1666 1612" fill="none" xmlns="http://www.w3.org/2000/svg">
<path d="M484.966 1030.19L367.69 744.752C364.446 736.854 365.128 727.887 369.53 720.571L553.664 414.537C558.687 406.189 567.818 401.194 577.557 401.468L905.134 410.667C915.565 410.96 924.893 417.236 929.093 426.788L1069.42 745.93C1072.07 751.948 1072.43 758.725 1070.44 764.989L986.249 1029.4C982.673 1040.63 972.229 1048.24 960.445 1048.21L509.864 1046.93C498.943 1046.9 489.117 1040.3 484.966 1030.19Z" stroke="#7D7FA9" stroke-opacity="0.18" stroke-width="10"/>
<path d="M700.248 460.015C706.173 450.104 716.978 444.154 728.522 444.446L1106.4 453.99C1118.77 454.302 1129.84 461.71 1134.85 473.016L1296.33 837.451C1300.03 845.811 1299.98 855.355 1296.2 863.677L1156.08 1171.36C1150.88 1182.78 1139.5 1190.1 1126.96 1190.1L653.103 1190.1C640.159 1190.1 628.491 1182.31 623.538 1170.35L487.292 841.378C483.42 832.029 484.198 821.399 489.391 812.714L700.248 460.015Z" fill="#282A59"/>
<path d="M628.158 1168.43L491.912 839.465C488.645 831.577 489.301 822.608 493.683 815.279L704.539 462.581C709.539 454.218 718.656 449.198 728.395 449.444L1106.28 458.988C1116.71 459.251 1126.05 465.502 1130.28 475.042L1291.76 839.477C1294.88 846.53 1294.84 854.583 1291.64 861.604L1151.53 1169.29C1147.15 1178.92 1137.54 1185.1 1126.96 1185.1L653.103 1185.1C642.182 1185.1 632.336 1178.52 628.158 1168.43Z" stroke="#7D7FA9" stroke-opacity="0.18" stroke-width="10"/>
</svg>
