<svg width="521" height="481" viewBox="0 0 521 481" fill="none" xmlns="http://www.w3.org/2000/svg">
<path d="M284.82 75.0028L142.549 73.1863C133.971 73.0767 125.986 77.5548 121.606 84.9319L51.67 202.726C47.3488 210.004 47.181 219.021 51.2285 226.455L119.801 352.402C124.006 360.126 132.1 364.931 140.895 364.926L284.299 364.832C292.764 364.827 300.599 360.363 304.92 353.085L374.856 235.291C379.236 227.914 379.345 218.76 375.142 211.28L305.436 87.2429C301.24 79.7766 293.383 75.1121 284.82 75.0028Z" fill="#282A59" fill-opacity="0.04" stroke="#373967" stroke-opacity="0.3" stroke-width="5.99999"/>
<path d="M376.256 105.873L229.464 104.404C220.885 104.318 212.913 108.818 208.553 116.207L136.722 237.959C132.42 245.249 132.278 254.266 136.346 261.689L207.454 391.439C211.68 399.152 219.787 403.935 228.582 403.905L376.539 403.4C385.003 403.371 392.826 398.886 397.127 391.595L468.959 269.843C473.319 262.454 473.402 253.3 469.179 245.832L396.906 118.056C392.69 110.601 384.82 105.958 376.256 105.873Z" fill="#282A59" stroke="#373967" stroke-width="5.99999"/>
</svg>
