<svg width="834" height="807" viewBox="0 0 834 807" fill="none" xmlns="http://www.w3.org/2000/svg">
<path d="M242.962 516.074L184.324 373.353C182.701 369.404 183.042 364.921 185.243 361.263L277.311 208.246C279.822 204.072 284.388 201.574 289.257 201.711L453.046 206.311C458.261 206.457 462.925 209.595 465.025 214.371L535.191 373.942C536.514 376.951 536.694 380.339 535.696 383.472L493.603 515.676C491.816 521.29 486.593 525.097 480.701 525.08L255.411 524.444C249.95 524.428 245.037 521.125 242.962 516.074Z" stroke="#7D7FA9" stroke-opacity="0.18" stroke-width="5"/>
<path d="M350.603 230.985C353.565 226.029 358.968 223.054 364.74 223.2L553.68 227.972C559.862 228.128 565.4 231.832 567.905 237.485L648.644 419.703C650.496 423.883 650.471 428.655 648.576 432.816L578.519 586.66C575.921 592.366 570.228 596.029 563.958 596.029L327.03 596.029C320.558 596.029 314.724 592.13 312.248 586.151L244.125 421.666C242.189 416.992 242.578 411.677 245.174 407.334L350.603 230.985Z" fill="#282A59"/>
<path d="M314.557 585.194L246.434 420.71C244.801 416.766 245.129 412.281 247.32 408.617L352.748 232.268C355.248 228.087 359.806 225.576 364.676 225.699L553.617 230.471C558.833 230.603 563.506 233.728 565.619 238.498L646.358 420.716C647.92 424.242 647.9 428.269 646.301 431.779L576.244 585.624C574.051 590.438 569.248 593.529 563.958 593.529L327.03 593.529C321.57 593.529 316.647 590.239 314.557 585.194Z" stroke="#7D7FA9" stroke-opacity="0.18" stroke-width="5"/>
</svg>
