<svg width="261" height="241" viewBox="0 0 261 241" fill="none" xmlns="http://www.w3.org/2000/svg">
<path d="M142.41 37.5014L71.2746 36.5931C66.9852 36.5384 62.9929 38.7774 60.8029 42.466L25.8349 101.363C23.6743 105.002 23.5904 109.51 25.6141 113.227L59.9004 176.201C62.0031 180.063 66.0499 182.466 70.4474 182.463L142.15 182.416C146.382 182.414 150.3 180.182 152.46 176.542L187.428 117.645C189.618 113.957 189.673 109.38 187.571 105.64L152.718 43.6214C150.62 39.8883 146.692 37.5561 142.41 37.5014Z" fill="#282A59" fill-opacity="0.04" stroke="#373967" stroke-opacity="0.3" stroke-width="3"/>
<path d="M188.128 52.9363L114.732 52.2019C110.443 52.1589 106.456 54.409 104.277 58.1036L68.3606 118.98C66.2101 122.625 66.1386 127.133 68.1726 130.845L103.727 195.72C105.84 199.576 109.894 201.967 114.291 201.952L188.269 201.7C192.502 201.686 196.413 199.443 198.564 195.798L234.48 134.922C236.66 131.227 236.701 126.65 234.59 122.916L198.453 59.0278C196.345 55.3005 192.41 52.9791 188.128 52.9363Z" fill="#282A59" stroke="#373967" stroke-width="3"/>
</svg>
