<svg width="48" height="48" viewBox="0 0 48 48" fill="none" xmlns="http://www.w3.org/2000/svg">
<path d="M36.9723 21.1825L34.43 20.4269C34.2927 20.0147 34.0865 19.6022 33.9492 19.2587L35.1859 16.9226C35.3232 16.6477 35.3232 16.3042 35.0487 16.098L32.025 13.0062C31.8187 12.8 31.4752 12.7313 31.2003 12.8689L28.8642 14.1057C28.4521 13.8995 28.0396 13.7622 27.6275 13.6249L26.8718 11.0826C26.8031 10.8077 26.5283 10.6018 26.1847 10.6018H21.8562C21.5127 10.6018 21.3065 10.808 21.1692 11.0826L20.4135 13.6249C20.0013 13.7622 19.5888 13.8998 19.1767 14.1057L16.8407 12.8689C16.5658 12.7317 16.2223 12.8003 16.016 13.0062L12.9239 16.0983C12.7177 16.3045 12.6491 16.648 12.7867 16.923L14.0234 19.259C13.8172 19.6712 13.6799 20.0837 13.5426 20.4958L11.0003 21.2515C10.7255 21.3201 10.5195 21.595 10.5195 21.9385V26.267C10.5195 26.5419 10.7258 26.8168 11.0003 26.8854L13.5426 27.6411C13.6799 28.0532 13.8175 28.4658 14.0234 28.8779L12.7867 31.2139C12.6494 31.4888 12.718 31.8323 12.9239 32.0386L16.016 35.1306C16.2222 35.3369 16.5658 35.4055 16.8407 35.2679L19.1767 34.0311C19.5889 34.2374 20.0014 34.3747 20.4135 34.512L21.1692 37.0542C21.2378 37.3291 21.5127 37.5351 21.8562 37.5351H26.1847C26.4596 37.5351 26.7345 37.3288 26.8031 37.0542L27.5588 34.512C27.971 34.3747 28.3835 34.1684 28.7956 34.0311L31.063 35.2679C31.3378 35.4052 31.6814 35.3366 31.8876 35.1306L34.9797 32.0386C35.1859 31.8323 35.2546 31.4888 35.117 31.2139L33.9488 28.8093C34.155 28.3971 34.2923 27.9846 34.4296 27.5725L36.9719 26.8168C37.2468 26.7482 37.4527 26.4733 37.4527 26.1298V21.8013C37.453 21.5261 37.2471 21.2515 36.9722 21.1825L36.9723 21.1825ZM24.1235 28.6031C21.5812 28.6031 19.5201 26.542 19.5201 23.9997C19.5201 21.4574 21.5812 19.3963 24.1235 19.3963C26.6658 19.3963 28.727 21.4574 28.727 23.9997C28.727 26.542 26.6658 28.6031 24.1235 28.6031Z" fill="#1CE25E"/>
<path d="M34.7727 8.67793L29.963 10.052C29.6195 10.1893 29.4133 10.5328 29.4822 10.8767C29.6195 11.2202 29.963 11.4265 30.3069 11.3575L36.4906 9.57099C36.8341 9.43371 37.0404 9.09019 36.9714 8.74631L35.1849 2.49394C35.1849 2.15074 34.7727 1.94449 34.4292 2.01314C34.0857 2.15042 33.8794 2.49394 33.9484 2.83782L35.1852 7.23531C20.6189 -2.38403 1.51787 9.98353 4.26625 27.1607C4.33489 27.5042 4.60978 27.7105 4.9533 27.7105H5.09058C5.43411 27.6418 5.70898 27.2983 5.64035 26.9548C3.02914 10.8766 21.1684 -0.804563 34.7727 8.67793Z" fill="#23254F"/>
<path d="M43.9781 20.7705C43.9094 20.427 43.5659 20.1521 43.2224 20.2208C42.8789 20.2894 42.604 20.6329 42.6726 20.9765C45.2835 37.1226 27.0755 48.7348 13.5401 39.322L18.3498 37.9479C18.6933 37.8106 18.8995 37.4671 18.8306 37.1232C18.6933 36.7797 18.3497 36.5734 18.0059 36.6424L11.8222 38.4289C11.4787 38.5662 11.2724 38.9097 11.3414 39.2536L13.1279 45.506C13.2652 45.8495 13.6087 46.0557 13.9526 45.9868C14.2961 45.8495 14.5023 45.506 14.4334 45.1621L13.1966 40.7646C27.6941 50.4528 46.7262 37.8791 43.9779 20.7704L43.9781 20.7705Z" fill="#23254F"/>
</svg>
