<svg width="48" height="48" viewBox="0 0 48 48" fill="none" xmlns="http://www.w3.org/2000/svg">
<path d="M5.90461 6C4.84933 6 4 6.86805 4 7.94578V32.2702C4 33.3483 4.84968 34.216 5.90461 34.216H42.0954C43.1507 34.216 44 33.348 44 32.2702V7.94578C44 6.86769 43.1503 6 42.0954 6H5.90461ZM13.5239 15.7298L14.6994 18.8463L17.8095 19.0744L15.4135 21.2334L16.1725 24.4867L13.5239 22.7078L10.8749 24.4867L11.6339 21.233L9.23794 19.0744L12.3483 18.8463L13.5239 15.7298ZM24.0002 15.7298L25.1757 18.8463L28.2857 19.0744L25.8898 21.2334L26.6488 24.4867L24.0002 22.7078L21.3515 24.4867L22.1102 21.233L19.7146 19.0744L22.8246 18.8463L24.0002 15.7298ZM34.4764 15.7298L35.652 18.8463L38.762 19.0744L36.3661 21.2334L37.1251 24.4867L34.4764 22.7078L31.8278 24.4867L32.5868 21.233L30.1908 19.0744L33.3009 18.8463L34.4764 15.7298ZM20.6668 35.1893L18.5 39.0813H29.5L27.3334 35.1893H20.6668ZM17.8095 40.0542C17.2833 40.0542 16.8572 40.4899 16.8572 41.0271C16.8572 41.5646 17.2837 42 17.8095 42H30.1905C30.7167 42 31.1428 41.5643 31.1428 41.0271C31.1428 40.4896 30.7163 40.0542 30.1905 40.0542H17.8095Z" fill="#1CE25E"/>
<rect x="8" y="15" width="32" height="12" fill="#1CE25E"/>
<path d="M11.3401 17.2659L12.2754 20.2347C12.3179 20.4119 12.4455 20.5005 12.6155 20.5005H15.634C15.9741 20.5005 16.1441 20.988 15.8465 21.2095L13.4233 23.0705C13.2957 23.1592 13.2532 23.3364 13.2957 23.5137L14.231 26.4825C14.3586 26.8369 13.9334 27.1471 13.6783 26.9256L11.2551 25.0645C11.1275 24.9759 10.9575 24.9759 10.8299 25.0645L8.40668 26.9256C8.10908 27.1471 7.72646 26.8369 7.854 26.4825L8.7893 23.5137C8.83181 23.3364 8.7893 23.2035 8.66176 23.0705L6.15347 21.2095C5.85587 20.988 6.02592 20.5005 6.36603 20.5005H9.38449C9.55454 20.5005 9.68208 20.4119 9.7246 20.2347L10.6599 17.2659C10.7449 16.9114 11.2551 16.9114 11.3401 17.2659Z" fill="#23254F"/>
<path d="M24.4081 11.319L25.5305 14.8816C25.5815 15.0943 25.7345 15.2006 25.9386 15.2006H29.5608C29.9689 15.2006 30.173 15.7855 29.8158 16.0514L26.9079 18.2847C26.7549 18.391 26.7039 18.6037 26.7549 18.8164L27.8772 22.379C28.0303 22.8043 27.5201 23.1765 27.214 22.9107L24.3061 20.6774C24.153 20.5711 23.949 20.5711 23.7959 20.6774L20.888 22.9107C20.5309 23.1765 20.0718 22.8043 20.2248 22.379L21.3472 18.8164C21.3982 18.6037 21.3472 18.4442 21.1941 18.2847L18.1842 16.0514C17.827 15.7855 18.0311 15.2006 18.4392 15.2006H22.0614C22.2655 15.2006 22.4185 15.0943 22.4695 14.8816L23.5919 11.319C23.6939 10.8937 24.3061 10.8937 24.4081 11.319Z" fill="#23254F"/>
<path d="M36.3401 17.2659L37.2754 20.2347C37.3179 20.4119 37.4455 20.5005 37.6155 20.5005H40.634C40.9741 20.5005 41.1441 20.988 40.8465 21.2095L38.4233 23.0705C38.2957 23.1592 38.2532 23.3364 38.2957 23.5137L39.231 26.4825C39.3586 26.8369 38.9334 27.1471 38.6783 26.9256L36.2551 25.0645C36.1275 24.9759 35.9575 24.9759 35.8299 25.0645L33.4067 26.9256C33.1091 27.1471 32.7265 26.8369 32.854 26.4825L33.7893 23.5137C33.8318 23.3364 33.7893 23.2035 33.6618 23.0705L31.1535 21.2095C30.8559 20.988 31.0259 20.5005 31.366 20.5005H34.3845C34.5545 20.5005 34.6821 20.4119 34.7246 20.2347L35.6599 17.2659C35.7449 16.9114 36.2551 16.9114 36.3401 17.2659Z" fill="#23254F"/>
</svg>
