<svg width="48" height="48" viewBox="0 0 48 48" fill="none" xmlns="http://www.w3.org/2000/svg">
<path d="M45.8097 42.3341L42.3996 35.3544V13.6841C42.3986 12.7071 42.0189 11.7707 41.344 11.08C40.669 10.3896 39.754 10.0011 38.7997 10H8.19973C7.24543 10.001 6.33044 10.3896 5.6555 11.08C4.98054 11.7708 4.60087 12.7071 4.59983 13.6841V35.3544L1.18973 42.3341C0.911073 42.9052 0.940901 43.583 1.26906 44.1261C1.59688 44.6694 2.17589 45 2.79971 45H44.2003C44.8241 45 45.4031 44.6694 45.7309 44.1261C46.0591 43.5831 46.0889 42.9052 45.8103 42.3341H45.8097ZM8.19912 13.6846H38.7991V33.9481H8.19912V13.6846Z" fill="#1CE25E"/>
<path d="M43.4701 3.23886H39.9903V1.04985C39.9903 0.6749 39.8044 0.328323 39.5029 0.140607C39.2013 -0.0468691 38.8297 -0.0468691 38.5281 0.140607C38.2265 0.328317 38.0407 0.674912 38.0407 1.04985V3.23886H24.9591V1.04985C24.9591 0.6749 24.7733 0.328323 24.4717 0.140607C24.1701 -0.0468691 23.7985 -0.0468691 23.4969 0.140607C23.1953 0.328317 23.0095 0.674912 23.0095 1.04985V3.23886H19.5296C18.8591 3.24026 18.2165 3.5278 17.7424 4.03843C17.2683 4.54907 17.0013 5.2411 17 5.96335V25.2755C17.0013 25.9978 17.2683 26.6898 17.7424 27.2004C18.2165 27.7111 18.8591 27.9986 19.5296 28H43.4703C44.1409 27.9986 44.7835 27.7111 45.2576 27.2004C45.7317 26.6898 45.9987 25.9978 46 25.2755V5.96335C45.9987 5.2411 45.7317 4.54909 45.2576 4.03843C44.7835 3.52778 44.1407 3.24023 43.4701 3.23886ZM44.0502 11.1129H18.9498V5.96335C18.9498 5.79767 19.0109 5.63878 19.1197 5.52161C19.2285 5.40444 19.376 5.33858 19.5299 5.33858H23.01V7.52759C23.01 7.90254 23.1956 8.24911 23.4971 8.43683C23.7987 8.62431 24.1704 8.62431 24.4719 8.43683C24.7735 8.24912 24.9593 7.90253 24.9593 7.52759V5.33858H38.0409V7.52759C38.0409 7.90254 38.2267 8.24911 38.5283 8.43683C38.8299 8.62431 39.2015 8.62431 39.5031 8.43683C39.8047 8.24912 39.9905 7.90253 39.9905 7.52759V5.33858H43.4706C43.7911 5.33858 44.0504 5.61816 44.0504 5.96334L44.0502 11.1129Z" fill="#23254F"/>
</svg>
