<svg width="48" height="48" viewBox="0 0 48 48" fill="none" xmlns="http://www.w3.org/2000/svg">
<path d="M6.43873 15.4206C3.67599 18.2014 1.8631 21.7858 1.25919 25.661C0.654907 29.5359 1.29091 33.5026 3.07573 36.9936L1.0392 45.2436C0.938099 45.6659 1.0349 46.1111 1.30252 46.453C1.57014 46.7947 1.97917 46.9954 2.41264 46.9977H2.74436L11.0332 44.9591C14.5208 46.7458 18.4836 47.3824 22.3552 46.7778C26.2261 46.1729 29.8065 44.3582 32.5852 41.5926C36.0523 38.122 38 33.4151 38 28.5066C38 23.5982 36.0524 18.8911 32.5852 15.4206C29.118 11.9499 24.4155 10 19.5124 10C14.6094 10 9.90662 11.9499 6.43967 15.4206L6.43873 15.4206Z" fill="#1CE25E"/>
<path d="M27.0085 10.9766C27.0085 7.39813 29.9182 4.48877 33.5035 4.48877C37.082 4.48877 39.9914 7.39845 39.9914 10.9766V16.7821H43.68V11.1696C43.68 5.5642 39.1159 1 33.497 1C27.8845 1 23.3203 5.56443 23.3203 11.1696V16.7821H27.0023L27.002 10.9766H27.0085Z" fill="#23254F"/>
<path d="M44.8343 17.7891H22.1784C20.4269 17.7891 19 19.2163 19 20.9674L19.2001 31.0961C19.3518 35.5916 21.4821 39.7835 24.8883 42.3003C27.3911 44.1481 30.3629 45.1272 33.493 45.1272C36.6301 45.1272 39.6087 44.1481 42.1048 42.3003C45.511 39.777 47.6413 35.5846 47.7931 31.0827L47.9999 20.9477C48.0135 19.2034 46.5862 17.79 44.8348 17.79L44.8343 17.7891ZM33.4992 37.4325C29.8311 37.4325 26.8457 34.4539 26.8457 30.7858C26.8457 27.1177 29.8311 24.1323 33.4992 24.1323C37.1674 24.1323 40.1528 27.1177 40.1528 30.7858C40.1528 34.4539 37.167 37.4325 33.4992 37.4325Z" fill="#23254F"/>
<path d="M36.3612 27.2896C36.0097 27.2896 35.6856 27.4275 35.4372 27.6688L32.5482 30.5579L31.5484 29.5581C31.3003 29.31 30.9762 29.1789 30.6243 29.1789C30.2796 29.1789 29.9487 29.3168 29.7073 29.5581C29.4593 29.8062 29.3281 30.1303 29.3281 30.4821C29.3281 30.8336 29.466 31.1578 29.7073 31.4062L31.6311 33.33C31.8792 33.578 32.2033 33.7092 32.5552 33.7092C32.9067 33.7092 33.2308 33.5713 33.4721 33.33L37.2849 29.5172C37.533 29.2691 37.6641 28.945 37.6641 28.5931C37.6641 28.2416 37.5262 27.9175 37.2849 27.6761C37.0368 27.4274 36.7127 27.2896 36.3612 27.2896L36.3612 27.2896Z" fill="#23254F"/>
</svg>
