<svg width="32" height="32" viewBox="0 0 32 32" fill="none" xmlns="http://www.w3.org/2000/svg">
<path d="M15.4669 26.6666C9.87058 26.6666 5.33398 22.1296 5.33398 16.5329C5.33398 10.9361 9.87066 6.3999 15.4669 6.3999C21.0632 6.3999 25.6007 10.9366 25.6007 16.5329C25.6007 22.1291 21.0637 26.6666 15.4669 26.6666ZM11.924 16.7782C11.5595 16.4364 10.987 16.4549 10.6452 16.8193C10.3034 17.1841 10.3219 17.7567 10.6864 18.0981L13.5816 20.8125C13.9703 21.1766 14.5876 21.1283 14.9147 20.708L19.9813 14.1937C20.2879 13.7994 20.2168 13.231 19.8225 12.9242C19.4282 12.6174 18.8595 12.6884 18.553 13.083L14.0954 18.814L11.924 16.7782Z" fill="#23254F"/>
</svg>
