<svg width="143" height="19" viewBox="0 0 143 19" fill="none" xmlns="http://www.w3.org/2000/svg">
<path d="M3.888 6.912V14.664C3.888 15.304 4.024 15.76 4.296 16.032C4.568 16.288 5.04 16.416 5.712 16.416H7.32V18.264H5.352C4.136 18.264 3.224 17.984 2.616 17.424C2.008 16.864 1.704 15.944 1.704 14.664V6.912H0V5.112H1.704V1.8H3.888V5.112H7.32V6.912H3.888ZM10.8302 7.248C11.2142 6.496 11.7582 5.912 12.4622 5.496C13.1822 5.08 14.0542 4.872 15.0782 4.872V7.128H14.5022C12.0542 7.128 10.8302 8.456 10.8302 11.112V18.264H8.6462V5.112H10.8302V7.248ZM17.4073 2.976C16.9913 2.976 16.6393 2.832 16.3513 2.544C16.0633 2.256 15.9193 1.904 15.9193 1.488C15.9193 1.072 16.0633 0.72 16.3513 0.432C16.6393 0.144 16.9913 0 17.4073 0C17.8073 0 18.1433 0.144 18.4153 0.432C18.7033 0.72 18.8473 1.072 18.8473 1.488C18.8473 1.904 18.7033 2.256 18.4153 2.544C18.1433 2.832 17.8073 2.976 17.4073 2.976ZM18.4633 5.112V18.264H16.2793V5.112H18.4633ZM23.0496 0.504V18.264H20.8656V0.504H23.0496ZM27.6358 0.504V18.264H25.4518V0.504H27.6358ZM31.1661 2.976C30.7501 2.976 30.3981 2.832 30.1101 2.544C29.8221 2.256 29.6781 1.904 29.6781 1.488C29.6781 1.072 29.8221 0.72 30.1101 0.432C30.3981 0.144 30.7501 0 31.1661 0C31.5661 0 31.9021 0.144 32.1741 0.432C32.4621 0.72 32.6061 1.072 32.6061 1.488C32.6061 1.904 32.4621 2.256 32.1741 2.544C31.9021 2.832 31.5661 2.976 31.1661 2.976ZM32.2221 5.112V18.264H30.0381V5.112H32.2221ZM46.2883 5.112V18.264H44.1043V16.32C43.6883 16.992 43.1043 17.52 42.3523 17.904C41.6163 18.272 40.8003 18.456 39.9043 18.456C38.8803 18.456 37.9603 18.248 37.1443 17.832C36.3283 17.4 35.6803 16.76 35.2003 15.912C34.7363 15.064 34.5043 14.032 34.5043 12.816V5.112H36.6643V12.528C36.6643 13.824 36.9923 14.824 37.6483 15.528C38.3043 16.216 39.2003 16.56 40.3363 16.56C41.5043 16.56 42.4243 16.2 43.0963 15.48C43.7683 14.76 44.1043 13.712 44.1043 12.336V5.112H46.2883ZM64.472 4.872C65.496 4.872 66.408 5.088 67.208 5.52C68.008 5.936 68.64 6.568 69.104 7.416C69.568 8.264 69.8 9.296 69.8 10.512V18.264H67.64V10.824C67.64 9.512 67.312 8.512 66.656 7.824C66.016 7.12 65.144 6.768 64.0399 6.768C62.9039 6.768 61.9999 7.136 61.3279 7.872C60.6559 8.592 60.3199 9.64 60.3199 11.016V18.264H58.1599V10.824C58.1599 9.512 57.8319 8.512 57.1759 7.824C56.5359 7.12 55.6639 6.768 54.5599 6.768C53.4239 6.768 52.5199 7.136 51.8479 7.872C51.1759 8.592 50.8399 9.64 50.8399 11.016V18.264H48.6559V5.112H50.8399V7.008C51.2719 6.32 51.8479 5.792 52.5679 5.424C53.3039 5.056 54.1119 4.872 54.9919 4.872C56.0959 4.872 57.0719 5.12 57.9199 5.616C58.7679 6.112 59.3999 6.84 59.8159 7.8C60.1839 6.872 60.7919 6.152 61.6399 5.64C62.4879 5.128 63.4319 4.872 64.472 4.872Z" fill="#1A1F36"/>
<path d="M72.7536 18.4079C72.3376 18.4079 71.9856 18.2639 71.6976 17.9759C71.4096 17.6879 71.2656 17.3359 71.2656 16.9199C71.2656 16.5039 71.4096 16.1519 71.6976 15.8639C71.9856 15.5759 72.3376 15.4319 72.7536 15.4319C73.1536 15.4319 73.4896 15.5759 73.7616 15.8639C74.0496 16.1519 74.1936 16.5039 74.1936 16.9199C74.1936 17.3359 74.0496 17.6879 73.7616 17.9759C73.4896 18.2639 73.1536 18.4079 72.7536 18.4079ZM82.3056 4.87191C83.2976 4.87191 84.1936 5.08791 84.9936 5.51991C85.7936 5.93591 86.4176 6.56791 86.8656 7.41591C87.3296 8.26391 87.5616 9.29591 87.5616 10.5119V18.2639H85.4016V10.8239C85.4016 9.51191 85.0736 8.51191 84.4176 7.82391C83.7616 7.11991 82.8656 6.76791 81.7296 6.76791C80.5776 6.76791 79.6576 7.12791 78.9696 7.84791C78.2976 8.56791 77.9616 9.61591 77.9616 10.9919V18.2639H75.7776V0.503906H77.9616V6.98391C78.3936 6.31191 78.9856 5.79191 79.7376 5.42391C80.5056 5.05591 81.3616 4.87191 82.3056 4.87191ZM101.809 11.1839C101.809 11.5999 101.785 12.0399 101.737 12.5039H91.2246C91.3046 13.7999 91.7446 14.8159 92.5446 15.5519C93.3606 16.2719 94.3446 16.6319 95.4966 16.6319C96.4406 16.6319 97.2246 16.4159 97.8486 15.9839C98.4886 15.5359 98.9366 14.9439 99.1926 14.2079H101.545C101.193 15.4719 100.489 16.5039 99.4326 17.3039C98.3766 18.0879 97.0646 18.4799 95.4966 18.4799C94.2486 18.4799 93.1286 18.1999 92.1366 17.6399C91.1606 17.0799 90.3926 16.2879 89.8326 15.2639C89.2726 14.2239 88.9926 13.0239 88.9926 11.6639C88.9926 10.3039 89.2646 9.11191 89.8086 8.08791C90.3526 7.06391 91.1126 6.27991 92.0886 5.73591C93.0806 5.17591 94.2166 4.89591 95.4966 4.89591C96.7446 4.89591 97.8486 5.16791 98.8086 5.71191C99.7686 6.25591 100.505 7.00791 101.017 7.96791C101.545 8.91191 101.809 9.98391 101.809 11.1839ZM99.5526 10.7279C99.5526 9.89591 99.3686 9.18391 99.0006 8.59191C98.6326 7.98391 98.1286 7.52791 97.4886 7.22391C96.8646 6.90391 96.1686 6.74391 95.4006 6.74391C94.2966 6.74391 93.3526 7.09591 92.5686 7.79991C91.8006 8.50391 91.3606 9.47991 91.2486 10.7279H99.5526ZM102.556 11.6399C102.556 10.2959 102.828 9.11991 103.372 8.11191C103.916 7.08791 104.66 6.29591 105.604 5.73591C106.564 5.17591 107.628 4.89591 108.796 4.89591C109.948 4.89591 110.948 5.14391 111.796 5.63991C112.644 6.13591 113.276 6.75991 113.692 7.51191V5.11191H115.9V18.2639H113.692V15.8159C113.26 16.5839 112.612 17.2239 111.748 17.7359C110.9 18.2319 109.908 18.4799 108.772 18.4799C107.604 18.4799 106.548 18.1919 105.604 17.6159C104.66 17.0399 103.916 16.2319 103.372 15.1919C102.828 14.1519 102.556 12.9679 102.556 11.6399ZM113.692 11.6639C113.692 10.6719 113.492 9.80791 113.092 9.07191C112.692 8.33591 112.148 7.77591 111.46 7.39191C110.788 6.99191 110.044 6.79191 109.228 6.79191C108.412 6.79191 107.668 6.98391 106.996 7.36791C106.324 7.75191 105.788 8.31191 105.388 9.04791C104.988 9.78391 104.788 10.6479 104.788 11.6399C104.788 12.6479 104.988 13.5279 105.388 14.2799C105.788 15.0159 106.324 15.5839 106.996 15.9839C107.668 16.3679 108.412 16.5599 109.228 16.5599C110.044 16.5599 110.788 16.3679 111.46 15.9839C112.148 15.5839 112.692 15.0159 113.092 14.2799C113.492 13.5279 113.692 12.6559 113.692 11.6639ZM120.455 0.503906V18.2639H118.271V0.503906H120.455ZM125.521 6.91191V14.6639C125.521 15.3039 125.657 15.7599 125.929 16.0319C126.201 16.2879 126.673 16.4159 127.345 16.4159H128.953V18.2639H126.985C125.769 18.2639 124.857 17.9839 124.249 17.4239C123.641 16.8639 123.337 15.9439 123.337 14.6639V6.91191H121.633V5.11191H123.337V1.79991H125.521V5.11191H128.953V6.91191H125.521ZM136.807 4.87191C137.799 4.87191 138.695 5.08791 139.495 5.51991C140.295 5.93591 140.919 6.56791 141.367 7.41591C141.831 8.26391 142.063 9.29591 142.063 10.5119V18.2639H139.903V10.8239C139.903 9.51191 139.575 8.51191 138.919 7.82391C138.263 7.11991 137.367 6.76791 136.231 6.76791C135.079 6.76791 134.159 7.12791 133.471 7.84791C132.799 8.56791 132.463 9.61591 132.463 10.9919V18.2639H130.279V0.503906H132.463V6.98391C132.895 6.31191 133.487 5.79191 134.239 5.42391C135.007 5.05591 135.863 4.87191 136.807 4.87191Z" fill="#1ACE7F"/>
</svg>
